<svg xmlns="http://www.w3.org/2000/svg" xmlns:xlink="http://www.w3.org/1999/xlink" width="500" zoomAndPan="magnify" viewBox="0 0 375 374.999991" height="500" preserveAspectRatio="xMidYMid meet" version="1.0"><defs><g/></defs><g fill="#ffffff" fill-opacity="1"><g transform="translate(3.225858, 215.655523)"><g><path d="M 53.25 -66.484375 L 53.328125 -23.46875 L 49.5 -19 L 21.1875 -18.078125 L 20.359375 -1.28125 L 1.828125 0.28125 L 1.828125 -72.78125 L 49.6875 -70.046875 Z M 34.15625 -55.625 L 22.09375 -56.8125 L 21.640625 -34.515625 L 34.0625 -35.4375 Z M 34.15625 -55.625 "/></g></g></g><g fill="#ffffff" fill-opacity="1"><g transform="translate(210.856222, 212.121146)"><g><path d="M 65.0625 -75.953125 L 65.921875 -0.1875 L 45.859375 -0.671875 L 44.328125 -43.859375 L 33.734375 -28 L 23.796875 -43.28125 L 22.265625 -0.953125 L 1.90625 -0.1875 L 2.96875 -76.625 L 23.125 -76.34375 L 33.734375 -59.140625 L 43.953125 -76.25 Z M 65.0625 -75.953125 "/></g></g></g><g fill="#ffffff" fill-opacity="1"><g transform="translate(109.232846, 209.170096)"><g><path d="M 45.828125 -18.75 L 41.453125 -18.25 L 47.34375 -6.21875 L 45.90625 -3.359375 L 32.953125 0 L 23.625 -17.0625 L 19.5 -16.90625 L 18.75 -1.6875 L 1.6875 -0.25 L 1.6875 -67.4375 L 45.734375 -64.734375 L 49.015625 -61.46875 L 49.109375 -24.375 Z M 31.359375 -32.875 L 31.4375 -51.703125 L 20.34375 -52.796875 L 19.921875 -32.03125 Z M 31.359375 -32.875 "/></g></g></g><g fill="#ffffff" fill-opacity="1"><g transform="translate(278.399986, 197.946074)"><g><path d="M 46.625 -43.34375 L 47.171875 0 L 36.265625 0.078125 L 34.578125 -2.703125 L 32.75 0 L 7.578125 -0.234375 L 1.59375 -4.625 L 3.03125 -25.34375 L 7.65625 -28.53125 L 29.96875 -28.921875 L 30.203125 -34.34375 L 18.890625 -35.140625 L 17.53125 -32.1875 L 2.953125 -33.15625 L 2.15625 -38.890625 L 6.296875 -45.90625 L 41.359375 -46.375 Z M 30.515625 -12.4375 L 30.4375 -19.765625 L 18.5625 -19.609375 L 19.046875 -12.90625 Z M 30.515625 -12.4375 "/></g></g></g><g fill="#ffffff" fill-opacity="1"><g transform="translate(280.515454, 235.985947)"><g><path d="M 5.34375 -34.1875 L 37.609375 -33.546875 L 37.609375 -21.4375 L 4.78125 -21.75 Z M 5.34375 -34.1875 "/></g></g></g><g fill="#ffffff" fill-opacity="1"><g transform="translate(326.859446, 210.458716)"><g><path d="M 43.4375 -17.765625 L 39.28125 -17.296875 L 44.859375 -5.890625 L 43.515625 -3.1875 L 31.234375 0 L 22.390625 -16.171875 L 18.484375 -16.015625 L 17.765625 -1.59375 L 1.59375 -0.234375 L 1.59375 -63.90625 L 43.34375 -61.359375 L 46.453125 -58.25 L 46.53125 -23.109375 Z M 29.71875 -31.15625 L 29.796875 -49.015625 L 19.28125 -50.046875 L 18.890625 -30.359375 Z M 29.71875 -31.15625 "/></g></g></g><g fill="#ffffff" fill-opacity="1"><g transform="translate(159.711995, 201.86676)"><g><path d="M 49.1875 -45.734375 L 49.78125 0 L 38.25 0.078125 L 36.484375 -2.859375 L 34.5625 0 L 7.984375 -0.25 L 1.6875 -4.875 L 3.1875 -26.734375 L 8.078125 -30.09375 L 31.609375 -30.515625 L 31.859375 -36.234375 L 19.921875 -37.078125 L 18.5 -33.96875 L 3.109375 -34.96875 L 2.265625 -41.03125 L 6.640625 -48.421875 L 43.640625 -48.9375 Z M 32.203125 -13.109375 L 32.125 -20.84375 L 19.59375 -20.6875 L 20.09375 -13.625 Z M 32.203125 -13.109375 "/></g></g></g><g fill="#ffffff" fill-opacity="1"><g transform="translate(161.943906, 242.000671)"><g><path d="M 5.640625 -36.0625 L 39.6875 -35.390625 L 39.6875 -22.609375 L 5.046875 -22.953125 Z M 5.640625 -36.0625 "/></g></g></g><g fill="#ffffff" fill-opacity="1"><g transform="translate(58.088631, 201.86676)"><g><path d="M 49.1875 -45.734375 L 49.78125 0 L 38.25 0.078125 L 36.484375 -2.859375 L 34.5625 0 L 7.984375 -0.25 L 1.6875 -4.875 L 3.1875 -26.734375 L 8.078125 -30.09375 L 31.609375 -30.515625 L 31.859375 -36.234375 L 19.921875 -37.078125 L 18.5 -33.96875 L 3.109375 -34.96875 L 2.265625 -41.03125 L 6.640625 -48.421875 L 43.640625 -48.9375 Z M 32.203125 -13.109375 L 32.125 -20.84375 L 19.59375 -20.6875 L 20.09375 -13.625 Z M 32.203125 -13.109375 "/></g></g></g><g fill="#ffffff" fill-opacity="1"><g transform="translate(60.320545, 242.000671)"><g><path d="M 5.640625 -36.0625 L 39.6875 -35.390625 L 39.6875 -22.609375 L 5.046875 -22.953125 Z M 5.640625 -36.0625 "/></g></g></g></svg>